<svg width="128" height="128" viewBox="0 0 128 128" xmlns="http://www.w3.org/2000/svg">
  <defs>
    <linearGradient id="grad1" x1="0%" y1="0%" x2="100%" y2="100%">
      <stop offset="0%" style="stop-color:#667eea;stop-opacity:1" />
      <stop offset="100%" style="stop-color:#764ba2;stop-opacity:1" />
    </linearGradient>
  </defs>
  
  <!-- 背景圓形 -->
  <circle cx="64" cy="64" r="60" fill="url(#grad1)"/>
  
  <!-- 書籤圖示 -->
  <path d="M 44 30 L 84 30 C 87 30 90 33 90 36 L 90 98 L 64 85 L 38 98 L 38 36 C 38 33 41 30 44 30 Z" 
        fill="white" stroke="white" stroke-width="2"/>
  <path d="M 44 30 L 84 30 C 87 30 90 33 90 36 L 90 98 L 64 85 L 38 98 L 38 36 C 38 33 41 30 44 30 Z M 44 36 L 44 88 L 64 78 L 84 88 L 84 36 L 44 36 Z" 
        fill="white"/>
</svg>
